<svg xmlns="http://www.w3.org/2000/svg" viewBox="0 0 24 24" fill="#D97757">
  <path d="M4.714 15.956l4.718-2.648.079-.23-.079-.128h-.23l-.79-.049-2.695-.073-2.338-.097-2.265-.121-.57-.122-.535-.704.055-.352.48-.322.686.06 1.517.104 2.277.158 1.652.097 2.446.255h.39l.054-.158-.134-.097-.103-.097-2.45-1.688-2.55-1.688-1.336-.971-.722-.492-.365-.461-.158-1.008.656-.723.88.061.225.061.892.686 1.907 1.475 2.49 1.834.364.303.145-.103.019-.073-.164-.273-1.354-2.447-1.445-2.49-.644-1.031-.17-.62a2.3 2.3 0 01-.103-.728L6.287.134 6.7 0l.995.134.42.364.618 1.415 1.002 2.228 1.554 3.03.456.898.243.832.09.255h.159v-.146l.127-1.706.237-2.095.23-2.695.08-.759.376-.911.747-.492.583.28.48.685-.067.444-.286 1.851-.558 2.902-.365 1.943h.213l.243-.243.983-1.305 1.652-2.065.728-.82.85-.904.547-.431h1.032l.759 1.13-.34 1.165-1.063 1.348-.88 1.141-1.263 1.7-.79 1.36.074.11.188-.02 2.853-.606 1.543-.28 1.839-.315.832.388.091.395-.328.807-1.967.486-2.307.461-3.437.814-.042.03.048.061 1.549.146.661.036h1.622l3.017.225.79.522.473.638-.079.485-1.214.62-1.64-.389-3.824-.911-1.312-.328h-.182v.11l1.093 1.068 2.003 1.809 2.508 2.331.127.577-.322.455-.34-.048-2.203-1.658-.85-.747-1.925-1.62h-.128v.17l.444.65 2.343 3.52.122 1.082-.17.352-.607.212-.668-.121-1.372-1.925-1.848-2.583-1.141-1.943-.14.08-.674 7.255-.316.37-.728.28-.607-.462-.322-.747.322-1.475.389-1.925.315-1.53.286-1.9.17-.632-.012-.042-.14.018-1.432 1.967-2.18 2.945-1.724 1.846-.413.164-.716-.37.066-.662.401-.589 2.386-3.036 1.439-1.882.93-1.087-.007-.158h-.054l-6.339 4.117-1.13.145-.485-.455.06-.747.231-.243 1.907-1.311z"/>
</svg>